<!DOCTYPE svg PUBLIC "-//W3C//DTD SVG 20010904//EN" "http://www.w3.org/TR/2001/REC-SVG-20010904/DTD/svg10.dtd">
<svg version="1.0" xmlns="http://www.w3.org/2000/svg" width="82px" height="82px" viewBox="0 0 820 820" preserveAspectRatio="xMidYMid meet">
<g id="layer1" fill="#fd996b" stroke="none">
 <path d="M307 724 c-4 -4 -7 -42 -7 -84 0 -73 -2 -78 -31 -106 -85 -80 -90 -204 -11 -287 106 -112 287 -78 346 65 31 74 13 154 -49 218 -32 33 -34 39 -37 115 l-3 80 -101 3 c-55 1 -103 0 -107 -4z m143 -126 c0 -61 1 -63 44 -103 53 -48 67 -97 45 -159 -40 -116 -218 -116 -258 0 -22 62 -8 111 45 159 43 40 44 42 44 103 l0 62 40 0 40 0 0 -62z"/>
 <path d="M54 416 c-3 -8 -4 -27 -2 -43 3 -27 5 -28 58 -28 l55 0 0 40 0 40 -53 3 c-39 2 -54 -1 -58 -12z"/>
 <path d="M654 416 c-3 -8 -4 -27 -2 -43 3 -27 5 -28 58 -28 l55 0 0 40 0 40 -53 3 c-39 2 -54 -1 -58 -12z"/>
 <path d="M152 187 c-28 -30 -28 -38 3 -67 l26 -24 31 32 32 31 -24 26 c-29 31 -41 31 -68 2z"/>
 <path d="M600 185 l-24 -26 32 -31 31 -32 26 24 c31 29 31 41 2 68 -30 28 -38 28 -67 -3z"/>
 <path d="M377 124 c-4 -4 -7 -29 -7 -56 l0 -48 41 0 40 0 -3 53 c-3 50 -4 52 -33 55 -17 2 -34 0 -38 -4z"/>
 </g>

</svg>